<?xml version="1.0" encoding="utf-8"?>
<!-- Generator: Adobe Illustrator 28.0.0, SVG Export Plug-In . SVG Version: 6.00 Build 0)  -->
<svg version="1.1" id="Layer_1" xmlns="http://www.w3.org/2000/svg" xmlns:xlink="http://www.w3.org/1999/xlink" x="0px" y="0px"
	 width="230px" height="80px" viewBox="0 0 230 80" style="enable-background:new 0 0 230 80;" xml:space="preserve">
<style type="text/css">
	.st0{fill:#FFFFFF;}
	.st1{fill:#BE1F24;}
</style>
<g id="LOGO">
	<path class="st0" d="M114.8,44.8v-1.4l0,0v-4.3c0,0,0-1.1,1.2-1.8c0,0,0.5-0.3,1.3-0.4c0,0-0.8-1.4-2.6-1.1v-9.5h-10.4v2.4h3.1
		c1.1,0.1,1,1,1,3V34l0,0v1.8c-1.8-0.2-2.7,1.1-2.7,1.1c0.8,0.1,1.3,0.4,1.3,0.4c0.8,0.4,1.1,1,1.2,1.5v1l0,0v0.3
		c-0.6,3.7-2.2,5.2-4.5,5.2h-0.3c-2.2,0-3.2-1.6-3.2-4.8v-1.4c0-0.3,0.1-1.4,1.2-1.9c0,0,0.5-0.3,1.3-0.4c0,0-0.8-1.4-2.6-1.1v-7.1
		l0,0v-2.4h-2c0.6-1.6,1-3.3,1-5.2c0.4-7.9-5.6-13-13.6-13h-0.2c-8.1,0.1-15.5,6.6-15.5,6.6c-0.6,0.5-1,0.9-1.6,1.4h-5.9v2.3h2.2
		l0,0c0,0,0.6,0,0.8,0.4c-9.5,9.5-13,19.6-18.4,28.7c-4,6.8-6.6,11.8-12.6,18.8C28.3,73.1,19.7,78,13.8,78c-5.9-0.1-9.3-5.5-9.3-5.5
		l-0.2,1.4c2.9,6.3,10.2,5.7,10.2,5.7c16.7-0.1,30.8-22.8,37.2-34.5c5.3-9.7,10-16.1,13.7-20.5v7.9c-1.7-0.2-2.5,1.1-2.5,1.1
		c0.8,0.1,1.3,0.4,1.3,0.4c0.9,0.5,1.1,1.2,1.2,1.6v2.1l0,0v8.4c0,0.4-0.1,0.6-0.2,0.8h-3v2.3H72V47h-2.7c-0.2-0.2-0.3-0.4-0.3-0.6
		V26.9l0,0v-1c0-0.1,0-0.2,0-0.2l0,0l0.2,0.2c0.1,0.1,0.2,0.2,0.3,0.5l0.6,0.8l0,0l1.4,2l0,0l1.1,1.6l1.3,1.9l0.1,0.1
		c-1,0.3-1.4,1-1.4,1c0.9,0,1.4,0.3,1.4,0.3c1,0.5,1.6,1,1.9,1.3c0.4,0.5,0.9,1.1,1.5,1.9l5.6,8l0.5,0.7l0.5,0.6l2,2.8h3.2V35.8
		v-0.6c0.1-0.3,0.2-0.6,0.5-1c1.6-0.8,2.9-1.7,3.9-2.5v3.8l0,0v0.4C91.8,35.7,91,37,91,37c0.8,0.1,1.3,0.4,1.3,0.4
		c1.1,0.6,1.2,1.6,1.2,1.9v1.8l0,0c0,1.5,0.2,2.8,0.6,3.9c1.1,3.1,3.3,4.7,6.5,4.7c3,0,5.5-1.6,7.5-4.7v2l0,0v2.4h9.7V47H116
		C115.5,46.9,114.8,46.2,114.8,44.8z M96.9,26.3h-6v2.4h1.7c0.8,0.1,1.2,0.5,1.4,1.2c0,0-0.1,0.1-0.2,0.2c-1.5,1.5-3.2,1.9-4.3,1.9
		v-6.7l0,0v-2.4l0,0l0,0v-1.4l0,0V21l0,0v-1.4c0-1,0.1-1.1,1-1.1h1.7V16h-9.8v2.3h2.4c1,0,0.9,0.4,0.9,0.6v3.2l0,0v1.6l0,0v0.9l0,0
		V25l0,0v1.2l0,0v1.2l0,0v1l0,0v6.8l0,0v0.7l0,0v1l0,0L85.1,36l0,0l0,0l-1.6-2.3c0.1-0.1,0.2-0.2,0.3-0.2c0,0,0.5-0.3,1.4-0.4
		c0,0-0.9-1.6-2.9-1.1l-0.9-1.2c-0.8-1.2-1.4-2-1.9-2.6l-7.2-10.1l-0.2-0.3c3.6-3.5,8.1-7,14.2-7.2c6-0.2,11.3,3.5,11.7,9.3
		C98.2,22.9,97.7,24.8,96.9,26.3z M160.1,30.4c0.1,0.4,0.2,0.8,0.2,1.2c0,0.2,0,0.6-0.1,0.7c-0.2,1.9-1.9,3.3-3.9,3.3
		c-2.2,0-3.9-1.6-3.9-3.7c0-1.4,0.8-2.7,2-3.2c-1-0.2-3.9-0.3-6.1,5.2v1.9c1.8-0.2,2.6,1.1,2.6,1.1c-0.8,0.1-1.3,0.4-1.3,0.4
		c-1.3,0.6-1.2,2-1.2,2l0,0v0.9l0,0v2.3V45c0,1-0.2,2,1,2h4v2.3h-15V47h2.7c0.3,0,0.6-0.2,0.6-1v-7c-0.1-0.5-0.3-1.2-1.2-1.6
		c0,0-0.5-0.3-1.4-0.4c0,0,0.8-1.4,2.6-1.1v-5.2c-0.1-1.2-0.4-1.9-1.8-1.9h-2.2v-2.3h2.5h0.8h3.1h3.5v2.9c0.8-0.9,3.1-3.1,6.8-3.1
		C158.6,26.2,159.8,29.1,160.1,30.4z M136.4,38.5c0.8,1.4,0.9,2.7,0.9,3.9c0,2.5-2.3,6.5-7.6,6.8c-5.2,0.3-7.4-1.5-7.4-1.5l-1.7,1.7
		h-1.9V41h1.7v0.2c2.3,4.4,6,5.8,7.9,5.8s3.9-0.6,3.9-2.8s-3.5-2.6-3.5-2.6c-0.6-0.2-1.3-0.3-1.9-0.5c-0.2,0-0.3,0-0.5-0.1
		c-7.1-1.5-7.4-5.4-7.2-7.9s2.2-6.4,7-6.7c4.8-0.3,6.8,1.5,6.8,1.5l1.7-1.6h1.4v8.1h-1.4c-2.2-4.4-5.6-5.9-7.4-5.9
		c-1.8,0-3.5,0.6-3.5,2.9c0,2.2,3.2,2.6,3.2,2.6c0.6,0.2,1.3,0.3,1.9,0.5c0.2,0,0.4,0.1,0.6,0.1c2.3,0.5,3.9,1.1,5.1,1.9
		c0.3-0.2,0.3-0.4,1-0.6c2.3-0.9,3.4,1,3.4,1c-0.8,0.1-1.3,0.4-1.3,0.4C136.8,37.7,136.5,38.1,136.4,38.5z M169.7,37.8
		c0,2.3-1.8,4.2-4,4.2s-4-1.9-4-4.2s1.8-4.2,4-4.2C167.9,33.7,169.7,35.5,169.7,37.8z"/>
	<path class="st1" d="M210,30.3c-1.6,0.4-2,0.5-2.7,0.6v4.6v0.1c0.3-0.1,0.6-0.1,1,0.1c0,0,0.9,0.2,1.6,1c0,0-2.3,0.2-2.7,2.6l0,0
		l0,0v3.8c0,0.6,0.1,1.3,0.2,1.8c0.2,0.5,0.6,0.7,1.4,0.7c1.4,0,1.9-1.2,2.2-2.2c0-0.1,0-0.2,0.1-0.3c0.1-0.4,0.1-0.6,0.1-0.8
		c0-0.6,0.1-1.7,0.1-1.7h2.2c0,3.1-0.6,6.1-2.7,7.8c-1,0.9-2.5,1.4-4.3,1.4c-0.6,0-1,0-1.5-0.1c-0.2,0-0.3-0.1-0.5-0.1l0,0
		c-0.6-0.2-1-0.4-1.5-0.6c0,0-0.1,0-0.1-0.1c-0.1-0.1-0.2-0.2-0.4-0.2l-0.1-0.1c-0.1-0.1-0.2-0.2-0.2-0.2s-0.1-0.1-0.2-0.2
		c-0.1-0.1-0.2-0.2-0.2-0.3c0,0,0-0.1-0.1-0.1c-1-1.4-1-3.2-1-3.9c0-0.2,0-0.3,0-0.6v-2.7v-0.2v-0.9c0-2.7-2.7-3-2.7-3
		c0.6-0.7,1.6-1,1.6-1c0.5-0.2,0.8-0.2,1-0.1v-0.1l0,0v-5.9h-3.1v-2.3c0,0,0.2,0,1.6-0.6s1.8-1,1.8-1c2.7-2.2,3-5.6,3-5.6h3.1v0.3
		v-0.1v0.2l0,0v5.9v0.5v0.2c1.3-0.2,5.9-0.8,11-4.9c6.8-5.4,5.2-11.9,5.2-11.9c-0.2-3.1-3.7-8.4-11-8.4c-7.8,0-11.7,4.8-11.7,4.8
		l-0.2-0.2c0,0,2.8-5.5,11.3-5.9c0.5,0,0.9-0.1,1.4-0.1c6.5,0,12.7,4.1,12.7,12.1C226,23.3,214.9,29.1,210,30.3z M207.3,20.3
		L207.3,20.3L207.3,20.3L207.3,20.3z M193.9,42.7c-2.6,3-4.9,3.9-6.5,4.3c-0.1,0-0.2,0-0.3,0h-2c-1,0-1.5-0.2-1.5-1V34.2h4.8
		c0,0,2.2,0.2,2.2,2.2c0,1.9-1.4,2.3-1.8,2.3c0,0,0.9,0.8,2,0.8c1,0,3.1-0.6,3.1-3.3c0-1.6-0.9-2.7-1.4-3.1c0.6-0.5,1.4-1.4,1.4-3.1
		c0-2.7-2-3.3-3.1-3.3s-1.9,0.8-1.9,0.8c0.3,0,1.8,0.5,1.8,2.3c0,1.9-2.2,2.2-2.2,2.2h-3.9l0,0h-1V19.9c0-0.6,0.5-0.6,0.7-0.7h4
		c2.1,0.2,5.4,1.5,7,6.3c0,0,0.2,0.5,0.2,1.4h2.3l0.1-7.7l0,0v-2.3h-24.8v2.3h2.5c0.2,0,0.8,0.1,0.8,0.8v12.3
		c-0.3-0.1-0.6-0.1-1,0.1c0,0-0.9,0.2-1.6,1c0,0,2.7,0.3,2.7,3v9.9c0,0.6-0.3,0.7-0.6,0.8h-2.7v2.3h24.4l0.6-11.2h-2
		C195.7,40.4,193.9,42.7,193.9,42.7z"/>
</g>
</svg>
